<mxfile host="app.diagrams.net" agent="Mozilla/5.0 (X11; Linux x86_64) AppleWebKit/537.36 (KHTML, like Gecko) Chrome/131.0.0.0 Safari/537.36" version="26.0.5">
  <diagram name="Seite-1" id="olQGG_vcmPqVT0JhuPP2">
    <mxGraphModel dx="1369" dy="562" grid="1" gridSize="10" guides="1" tooltips="1" connect="1" arrows="1" fold="1" page="1" pageScale="1" pageWidth="827" pageHeight="1169" math="0" shadow="0">
      <root>
        <mxCell id="0" />
        <mxCell id="1" parent="0" />
        <mxCell id="qdn6MXQOEBnzC9-wBVx1-26" value="" style="endArrow=none;dashed=1;html=1;dashPattern=1 3;strokeWidth=2;rounded=0;" edge="1" parent="1">
          <mxGeometry width="50" height="50" relative="1" as="geometry">
            <mxPoint x="238" y="200" as="sourcePoint" />
            <mxPoint x="238" y="640" as="targetPoint" />
          </mxGeometry>
        </mxCell>
        <mxCell id="qdn6MXQOEBnzC9-wBVx1-5" value="" style="group" vertex="1" connectable="0" parent="1">
          <mxGeometry x="279" y="240" width="80" height="80" as="geometry" />
        </mxCell>
        <mxCell id="qdn6MXQOEBnzC9-wBVx1-2" value="&lt;b&gt;Select next PC&lt;/b&gt;" style="whiteSpace=wrap;html=1;aspect=fixed;fillColor=#FFD966;" vertex="1" parent="qdn6MXQOEBnzC9-wBVx1-5">
          <mxGeometry width="80" height="80" as="geometry" />
        </mxCell>
        <mxCell id="qdn6MXQOEBnzC9-wBVx1-3" value="" style="endArrow=none;html=1;rounded=0;exitX=0;exitY=0.25;exitDx=0;exitDy=0;" edge="1" parent="qdn6MXQOEBnzC9-wBVx1-5" source="qdn6MXQOEBnzC9-wBVx1-2">
          <mxGeometry width="50" height="50" relative="1" as="geometry">
            <mxPoint x="30" y="50" as="sourcePoint" />
            <mxPoint x="80" as="targetPoint" />
          </mxGeometry>
        </mxCell>
        <mxCell id="qdn6MXQOEBnzC9-wBVx1-4" value="" style="endArrow=none;html=1;rounded=0;exitX=0;exitY=0.25;exitDx=0;exitDy=0;entryX=1;entryY=1;entryDx=0;entryDy=0;" edge="1" parent="qdn6MXQOEBnzC9-wBVx1-5" target="qdn6MXQOEBnzC9-wBVx1-2">
          <mxGeometry width="50" height="50" relative="1" as="geometry">
            <mxPoint y="60" as="sourcePoint" />
            <mxPoint x="80" y="40" as="targetPoint" />
          </mxGeometry>
        </mxCell>
        <mxCell id="qdn6MXQOEBnzC9-wBVx1-93" style="edgeStyle=orthogonalEdgeStyle;rounded=0;orthogonalLoop=1;jettySize=auto;html=1;exitX=1;exitY=0.5;exitDx=0;exitDy=0;entryX=0;entryY=0.5;entryDx=0;entryDy=0;" edge="1" parent="1" source="qdn6MXQOEBnzC9-wBVx1-7" target="qdn6MXQOEBnzC9-wBVx1-8">
          <mxGeometry relative="1" as="geometry" />
        </mxCell>
        <mxCell id="qdn6MXQOEBnzC9-wBVx1-7" value="" style="rounded=0;whiteSpace=wrap;html=1;fillColor=#A680B8;" vertex="1" parent="1">
          <mxGeometry x="232" y="360" width="10" height="80" as="geometry" />
        </mxCell>
        <mxCell id="qdn6MXQOEBnzC9-wBVx1-94" style="edgeStyle=orthogonalEdgeStyle;rounded=0;orthogonalLoop=1;jettySize=auto;html=1;exitX=1;exitY=0.5;exitDx=0;exitDy=0;entryX=1;entryY=0.75;entryDx=0;entryDy=0;" edge="1" parent="1" source="qdn6MXQOEBnzC9-wBVx1-8" target="qdn6MXQOEBnzC9-wBVx1-2">
          <mxGeometry relative="1" as="geometry" />
        </mxCell>
        <mxCell id="qdn6MXQOEBnzC9-wBVx1-8" value="&lt;b&gt;+ 0x4&lt;/b&gt;" style="rounded=0;whiteSpace=wrap;html=1;fillColor=#9AC7BF;" vertex="1" parent="1">
          <mxGeometry x="320" y="343" width="40" height="40" as="geometry" />
        </mxCell>
        <mxCell id="qdn6MXQOEBnzC9-wBVx1-96" style="edgeStyle=orthogonalEdgeStyle;rounded=0;orthogonalLoop=1;jettySize=auto;html=1;exitX=1;exitY=0.5;exitDx=0;exitDy=0;entryX=0;entryY=0.5;entryDx=0;entryDy=0;" edge="1" parent="1" source="qdn6MXQOEBnzC9-wBVx1-10" target="qdn6MXQOEBnzC9-wBVx1-25">
          <mxGeometry relative="1" as="geometry" />
        </mxCell>
        <mxCell id="qdn6MXQOEBnzC9-wBVx1-129" style="edgeStyle=orthogonalEdgeStyle;rounded=0;orthogonalLoop=1;jettySize=auto;html=1;exitX=0.75;exitY=0;exitDx=0;exitDy=0;entryX=1;entryY=0.5;entryDx=0;entryDy=0;strokeColor=#FF6666;" edge="1" parent="1" source="qdn6MXQOEBnzC9-wBVx1-10" target="qdn6MXQOEBnzC9-wBVx1-2">
          <mxGeometry relative="1" as="geometry">
            <Array as="points">
              <mxPoint x="430" y="400" />
              <mxPoint x="430" y="280" />
            </Array>
          </mxGeometry>
        </mxCell>
        <mxCell id="qdn6MXQOEBnzC9-wBVx1-130" value="Stall on miss" style="edgeLabel;html=1;align=center;verticalAlign=middle;resizable=0;points=[];" vertex="1" connectable="0" parent="qdn6MXQOEBnzC9-wBVx1-129">
          <mxGeometry x="0.7128" y="-4" relative="1" as="geometry">
            <mxPoint x="25" y="-7" as="offset" />
          </mxGeometry>
        </mxCell>
        <mxCell id="qdn6MXQOEBnzC9-wBVx1-10" value="Instruction Cache" style="swimlane;fontStyle=1;childLayout=stackLayout;horizontal=1;startSize=30;horizontalStack=0;resizeParent=1;resizeParentMax=0;resizeLast=0;collapsible=1;marginBottom=0;whiteSpace=wrap;html=1;fillColor=#A9C4EB;" vertex="1" parent="1">
          <mxGeometry x="320" y="400" width="120" height="150" as="geometry" />
        </mxCell>
        <mxCell id="qdn6MXQOEBnzC9-wBVx1-11" value="Line 1&amp;nbsp; &amp;nbsp; &amp;nbsp; &amp;nbsp;" style="text;strokeColor=none;fillColor=#E6E6E6;align=left;verticalAlign=middle;spacingLeft=4;spacingRight=4;overflow=hidden;points=[[0,0.5],[1,0.5]];portConstraint=eastwest;rotatable=0;whiteSpace=wrap;html=1;" vertex="1" parent="qdn6MXQOEBnzC9-wBVx1-10">
          <mxGeometry y="30" width="120" height="30" as="geometry" />
        </mxCell>
        <mxCell id="qdn6MXQOEBnzC9-wBVx1-12" value="Line 2" style="text;strokeColor=none;fillColor=#E6E6E6;align=left;verticalAlign=middle;spacingLeft=4;spacingRight=4;overflow=hidden;points=[[0,0.5],[1,0.5]];portConstraint=eastwest;rotatable=0;whiteSpace=wrap;html=1;" vertex="1" parent="qdn6MXQOEBnzC9-wBVx1-10">
          <mxGeometry y="60" width="120" height="30" as="geometry" />
        </mxCell>
        <mxCell id="qdn6MXQOEBnzC9-wBVx1-13" value="Line 3" style="text;strokeColor=none;fillColor=#E6E6E6;align=left;verticalAlign=middle;spacingLeft=4;spacingRight=4;overflow=hidden;points=[[0,0.5],[1,0.5]];portConstraint=eastwest;rotatable=0;whiteSpace=wrap;html=1;" vertex="1" parent="qdn6MXQOEBnzC9-wBVx1-10">
          <mxGeometry y="90" width="120" height="30" as="geometry" />
        </mxCell>
        <mxCell id="qdn6MXQOEBnzC9-wBVx1-18" value="Line 4" style="text;strokeColor=none;fillColor=#E6E6E6;align=left;verticalAlign=middle;spacingLeft=4;spacingRight=4;overflow=hidden;points=[[0,0.5],[1,0.5]];portConstraint=eastwest;rotatable=0;whiteSpace=wrap;html=1;" vertex="1" parent="qdn6MXQOEBnzC9-wBVx1-10">
          <mxGeometry y="120" width="120" height="30" as="geometry" />
        </mxCell>
        <mxCell id="qdn6MXQOEBnzC9-wBVx1-132" style="edgeStyle=orthogonalEdgeStyle;rounded=0;orthogonalLoop=1;jettySize=auto;html=1;exitX=1;exitY=0.5;exitDx=0;exitDy=0;strokeColor=#FF6666;" edge="1" parent="1" source="qdn6MXQOEBnzC9-wBVx1-21">
          <mxGeometry relative="1" as="geometry">
            <mxPoint x="359" y="280" as="targetPoint" />
            <Array as="points">
              <mxPoint x="450" y="590" />
              <mxPoint x="450" y="280" />
              <mxPoint x="359" y="280" />
            </Array>
          </mxGeometry>
        </mxCell>
        <mxCell id="qdn6MXQOEBnzC9-wBVx1-21" value="Instruction TLB" style="swimlane;fontStyle=1;childLayout=stackLayout;horizontal=1;startSize=30;horizontalStack=0;resizeParent=1;resizeParentMax=0;resizeLast=0;collapsible=1;marginBottom=0;whiteSpace=wrap;html=1;fillColor=#A9C4EB;" vertex="1" parent="1">
          <mxGeometry x="320" y="560" width="120" height="60" as="geometry" />
        </mxCell>
        <mxCell id="qdn6MXQOEBnzC9-wBVx1-22" value="Mapping 1" style="text;strokeColor=none;fillColor=#E6E6E6;align=left;verticalAlign=middle;spacingLeft=4;spacingRight=4;overflow=hidden;points=[[0,0.5],[1,0.5]];portConstraint=eastwest;rotatable=0;whiteSpace=wrap;html=1;" vertex="1" parent="qdn6MXQOEBnzC9-wBVx1-21">
          <mxGeometry y="30" width="120" height="30" as="geometry" />
        </mxCell>
        <mxCell id="qdn6MXQOEBnzC9-wBVx1-28" value="" style="endArrow=none;dashed=1;html=1;dashPattern=1 3;strokeWidth=2;rounded=0;" edge="1" parent="1">
          <mxGeometry width="50" height="50" relative="1" as="geometry">
            <mxPoint x="480" y="200" as="sourcePoint" />
            <mxPoint x="480" y="640" as="targetPoint" />
          </mxGeometry>
        </mxCell>
        <mxCell id="qdn6MXQOEBnzC9-wBVx1-98" style="edgeStyle=orthogonalEdgeStyle;rounded=0;orthogonalLoop=1;jettySize=auto;html=1;exitX=1;exitY=0.5;exitDx=0;exitDy=0;entryX=0;entryY=0.5;entryDx=0;entryDy=0;" edge="1" parent="1" source="qdn6MXQOEBnzC9-wBVx1-25" target="qdn6MXQOEBnzC9-wBVx1-102">
          <mxGeometry relative="1" as="geometry">
            <mxPoint x="519" y="422.5" as="targetPoint" />
          </mxGeometry>
        </mxCell>
        <mxCell id="qdn6MXQOEBnzC9-wBVx1-25" value="" style="rounded=0;whiteSpace=wrap;html=1;fillColor=#A680B8;" vertex="1" parent="1">
          <mxGeometry x="474" y="360" width="10" height="80" as="geometry" />
        </mxCell>
        <mxCell id="qdn6MXQOEBnzC9-wBVx1-30" value="" style="endArrow=none;dashed=1;html=1;dashPattern=1 3;strokeWidth=2;rounded=0;" edge="1" parent="1">
          <mxGeometry width="50" height="50" relative="1" as="geometry">
            <mxPoint x="692" y="200" as="sourcePoint" />
            <mxPoint x="692" y="640" as="targetPoint" />
          </mxGeometry>
        </mxCell>
        <mxCell id="qdn6MXQOEBnzC9-wBVx1-110" style="edgeStyle=orthogonalEdgeStyle;rounded=0;orthogonalLoop=1;jettySize=auto;html=1;exitX=1;exitY=0.75;exitDx=0;exitDy=0;entryX=0;entryY=0.75;entryDx=0;entryDy=0;" edge="1" parent="1" source="qdn6MXQOEBnzC9-wBVx1-31" target="qdn6MXQOEBnzC9-wBVx1-34">
          <mxGeometry relative="1" as="geometry">
            <Array as="points">
              <mxPoint x="715" y="450" />
              <mxPoint x="715" y="415" />
            </Array>
          </mxGeometry>
        </mxCell>
        <mxCell id="qdn6MXQOEBnzC9-wBVx1-31" value="" style="rounded=0;whiteSpace=wrap;html=1;fillColor=#A680B8;" vertex="1" parent="1">
          <mxGeometry x="687" y="390" width="8" height="80" as="geometry" />
        </mxCell>
        <mxCell id="qdn6MXQOEBnzC9-wBVx1-109" style="edgeStyle=orthogonalEdgeStyle;rounded=0;orthogonalLoop=1;jettySize=auto;html=1;exitX=1;exitY=0.5;exitDx=0;exitDy=0;" edge="1" parent="1" source="qdn6MXQOEBnzC9-wBVx1-32" target="qdn6MXQOEBnzC9-wBVx1-34">
          <mxGeometry relative="1" as="geometry">
            <Array as="points">
              <mxPoint x="710" y="337" />
              <mxPoint x="710" y="350" />
            </Array>
          </mxGeometry>
        </mxCell>
        <mxCell id="qdn6MXQOEBnzC9-wBVx1-32" value="" style="rounded=0;whiteSpace=wrap;html=1;fillColor=#A680B8;" vertex="1" parent="1">
          <mxGeometry x="688" y="297" width="8" height="80" as="geometry" />
        </mxCell>
        <mxCell id="qdn6MXQOEBnzC9-wBVx1-115" style="edgeStyle=orthogonalEdgeStyle;rounded=0;orthogonalLoop=1;jettySize=auto;html=1;exitX=1;exitY=0.5;exitDx=0;exitDy=0;entryX=0;entryY=0.5;entryDx=0;entryDy=0;" edge="1" parent="1" source="qdn6MXQOEBnzC9-wBVx1-33" target="qdn6MXQOEBnzC9-wBVx1-42">
          <mxGeometry relative="1" as="geometry" />
        </mxCell>
        <mxCell id="qdn6MXQOEBnzC9-wBVx1-33" value="" style="rounded=0;whiteSpace=wrap;html=1;fillColor=#A680B8;" vertex="1" parent="1">
          <mxGeometry x="687" y="521" width="8" height="80" as="geometry" />
        </mxCell>
        <mxCell id="qdn6MXQOEBnzC9-wBVx1-111" style="edgeStyle=orthogonalEdgeStyle;rounded=0;orthogonalLoop=1;jettySize=auto;html=1;exitX=1;exitY=0.5;exitDx=0;exitDy=0;entryX=0;entryY=0.5;entryDx=0;entryDy=0;" edge="1" parent="1" source="qdn6MXQOEBnzC9-wBVx1-34" target="qdn6MXQOEBnzC9-wBVx1-40">
          <mxGeometry relative="1" as="geometry" />
        </mxCell>
        <mxCell id="qdn6MXQOEBnzC9-wBVx1-34" value="&lt;b&gt;ALU&lt;/b&gt;" style="shape=step;perimeter=stepPerimeter;whiteSpace=wrap;html=1;fixedSize=1;fillColor=#9AC7BF;" vertex="1" parent="1">
          <mxGeometry x="720" y="278" width="100" height="200" as="geometry" />
        </mxCell>
        <mxCell id="qdn6MXQOEBnzC9-wBVx1-39" value="" style="endArrow=none;dashed=1;html=1;dashPattern=1 3;strokeWidth=2;rounded=0;" edge="1" parent="1">
          <mxGeometry width="50" height="50" relative="1" as="geometry">
            <mxPoint x="866" y="196" as="sourcePoint" />
            <mxPoint x="866" y="636" as="targetPoint" />
          </mxGeometry>
        </mxCell>
        <mxCell id="qdn6MXQOEBnzC9-wBVx1-119" style="edgeStyle=orthogonalEdgeStyle;rounded=0;orthogonalLoop=1;jettySize=auto;html=1;exitX=1;exitY=0.5;exitDx=0;exitDy=0;entryX=0;entryY=0.5;entryDx=0;entryDy=0;" edge="1" parent="1" source="qdn6MXQOEBnzC9-wBVx1-40" target="qdn6MXQOEBnzC9-wBVx1-49">
          <mxGeometry relative="1" as="geometry">
            <Array as="points">
              <mxPoint x="891" y="378" />
              <mxPoint x="891" y="514" />
            </Array>
          </mxGeometry>
        </mxCell>
        <mxCell id="qdn6MXQOEBnzC9-wBVx1-120" style="edgeStyle=orthogonalEdgeStyle;rounded=0;orthogonalLoop=1;jettySize=auto;html=1;exitX=1;exitY=0.5;exitDx=0;exitDy=0;entryX=0;entryY=0.5;entryDx=0;entryDy=0;" edge="1" parent="1" source="qdn6MXQOEBnzC9-wBVx1-40" target="qdn6MXQOEBnzC9-wBVx1-44">
          <mxGeometry relative="1" as="geometry">
            <Array as="points">
              <mxPoint x="891" y="378" />
              <mxPoint x="891" y="314" />
            </Array>
          </mxGeometry>
        </mxCell>
        <mxCell id="qdn6MXQOEBnzC9-wBVx1-122" style="edgeStyle=orthogonalEdgeStyle;rounded=0;orthogonalLoop=1;jettySize=auto;html=1;exitX=1;exitY=0.5;exitDx=0;exitDy=0;entryX=0;entryY=0.5;entryDx=0;entryDy=0;" edge="1" parent="1" source="qdn6MXQOEBnzC9-wBVx1-40" target="qdn6MXQOEBnzC9-wBVx1-72">
          <mxGeometry relative="1" as="geometry">
            <Array as="points">
              <mxPoint x="900" y="378" />
              <mxPoint x="900" y="420" />
            </Array>
          </mxGeometry>
        </mxCell>
        <mxCell id="qdn6MXQOEBnzC9-wBVx1-40" value="" style="rounded=0;whiteSpace=wrap;html=1;fillColor=#A680B8;" vertex="1" parent="1">
          <mxGeometry x="863" y="339" width="8" height="79" as="geometry" />
        </mxCell>
        <mxCell id="qdn6MXQOEBnzC9-wBVx1-116" style="edgeStyle=orthogonalEdgeStyle;rounded=0;orthogonalLoop=1;jettySize=auto;html=1;exitX=1;exitY=0.5;exitDx=0;exitDy=0;entryX=0;entryY=0.5;entryDx=0;entryDy=0;" edge="1" parent="1" source="qdn6MXQOEBnzC9-wBVx1-42" target="qdn6MXQOEBnzC9-wBVx1-49">
          <mxGeometry relative="1" as="geometry" />
        </mxCell>
        <mxCell id="qdn6MXQOEBnzC9-wBVx1-42" value="" style="rounded=0;whiteSpace=wrap;html=1;fillColor=#A680B8;" vertex="1" parent="1">
          <mxGeometry x="862" y="520" width="8" height="80" as="geometry" />
        </mxCell>
        <mxCell id="qdn6MXQOEBnzC9-wBVx1-121" style="edgeStyle=orthogonalEdgeStyle;rounded=0;orthogonalLoop=1;jettySize=auto;html=1;exitX=1;exitY=0.5;exitDx=0;exitDy=0;entryX=0;entryY=0.25;entryDx=0;entryDy=0;" edge="1" parent="1" source="qdn6MXQOEBnzC9-wBVx1-44" target="qdn6MXQOEBnzC9-wBVx1-72">
          <mxGeometry relative="1" as="geometry" />
        </mxCell>
        <mxCell id="qdn6MXQOEBnzC9-wBVx1-44" value="Store Buffer" style="swimlane;fontStyle=1;childLayout=stackLayout;horizontal=1;startSize=30;horizontalStack=0;resizeParent=1;resizeParentMax=0;resizeLast=0;collapsible=1;marginBottom=0;whiteSpace=wrap;html=1;fillColor=#FF6666;" vertex="1" parent="1">
          <mxGeometry x="911" y="239" width="119" height="150" as="geometry" />
        </mxCell>
        <mxCell id="qdn6MXQOEBnzC9-wBVx1-45" value="Entry 1" style="text;strokeColor=none;fillColor=#E6E6E6;align=left;verticalAlign=middle;spacingLeft=4;spacingRight=4;overflow=hidden;points=[[0,0.5],[1,0.5]];portConstraint=eastwest;rotatable=0;whiteSpace=wrap;html=1;" vertex="1" parent="qdn6MXQOEBnzC9-wBVx1-44">
          <mxGeometry y="30" width="119" height="30" as="geometry" />
        </mxCell>
        <mxCell id="qdn6MXQOEBnzC9-wBVx1-46" value="Entry 2" style="text;strokeColor=none;fillColor=#E6E6E6;align=left;verticalAlign=middle;spacingLeft=4;spacingRight=4;overflow=hidden;points=[[0,0.5],[1,0.5]];portConstraint=eastwest;rotatable=0;whiteSpace=wrap;html=1;" vertex="1" parent="qdn6MXQOEBnzC9-wBVx1-44">
          <mxGeometry y="60" width="119" height="30" as="geometry" />
        </mxCell>
        <mxCell id="qdn6MXQOEBnzC9-wBVx1-47" value="Entry 3" style="text;strokeColor=none;fillColor=#E6E6E6;align=left;verticalAlign=middle;spacingLeft=4;spacingRight=4;overflow=hidden;points=[[0,0.5],[1,0.5]];portConstraint=eastwest;rotatable=0;whiteSpace=wrap;html=1;" vertex="1" parent="qdn6MXQOEBnzC9-wBVx1-44">
          <mxGeometry y="90" width="119" height="30" as="geometry" />
        </mxCell>
        <mxCell id="qdn6MXQOEBnzC9-wBVx1-48" value="Entry 4" style="text;strokeColor=none;fillColor=#E6E6E6;align=left;verticalAlign=middle;spacingLeft=4;spacingRight=4;overflow=hidden;points=[[0,0.5],[1,0.5]];portConstraint=eastwest;rotatable=0;whiteSpace=wrap;html=1;" vertex="1" parent="qdn6MXQOEBnzC9-wBVx1-44">
          <mxGeometry y="120" width="119" height="30" as="geometry" />
        </mxCell>
        <mxCell id="qdn6MXQOEBnzC9-wBVx1-123" style="edgeStyle=orthogonalEdgeStyle;rounded=0;orthogonalLoop=1;jettySize=auto;html=1;exitX=1;exitY=0.5;exitDx=0;exitDy=0;entryX=0;entryY=0.75;entryDx=0;entryDy=0;" edge="1" parent="1" source="qdn6MXQOEBnzC9-wBVx1-49" target="qdn6MXQOEBnzC9-wBVx1-72">
          <mxGeometry relative="1" as="geometry" />
        </mxCell>
        <mxCell id="qdn6MXQOEBnzC9-wBVx1-49" value="Data Cache" style="swimlane;fontStyle=1;childLayout=stackLayout;horizontal=1;startSize=30;horizontalStack=0;resizeParent=1;resizeParentMax=0;resizeLast=0;collapsible=1;marginBottom=0;whiteSpace=wrap;html=1;fillColor=#A9C4EB;" vertex="1" parent="1">
          <mxGeometry x="911" y="439" width="119" height="150" as="geometry" />
        </mxCell>
        <mxCell id="qdn6MXQOEBnzC9-wBVx1-50" value="Line 1&amp;nbsp; &amp;nbsp; &amp;nbsp; &amp;nbsp;" style="text;strokeColor=none;fillColor=#E6E6E6;align=left;verticalAlign=middle;spacingLeft=4;spacingRight=4;overflow=hidden;points=[[0,0.5],[1,0.5]];portConstraint=eastwest;rotatable=0;whiteSpace=wrap;html=1;" vertex="1" parent="qdn6MXQOEBnzC9-wBVx1-49">
          <mxGeometry y="30" width="119" height="30" as="geometry" />
        </mxCell>
        <mxCell id="qdn6MXQOEBnzC9-wBVx1-51" value="Line 2" style="text;strokeColor=none;fillColor=#E6E6E6;align=left;verticalAlign=middle;spacingLeft=4;spacingRight=4;overflow=hidden;points=[[0,0.5],[1,0.5]];portConstraint=eastwest;rotatable=0;whiteSpace=wrap;html=1;" vertex="1" parent="qdn6MXQOEBnzC9-wBVx1-49">
          <mxGeometry y="60" width="119" height="30" as="geometry" />
        </mxCell>
        <mxCell id="qdn6MXQOEBnzC9-wBVx1-52" value="Line 3" style="text;strokeColor=none;fillColor=#E6E6E6;align=left;verticalAlign=middle;spacingLeft=4;spacingRight=4;overflow=hidden;points=[[0,0.5],[1,0.5]];portConstraint=eastwest;rotatable=0;whiteSpace=wrap;html=1;" vertex="1" parent="qdn6MXQOEBnzC9-wBVx1-49">
          <mxGeometry y="90" width="119" height="30" as="geometry" />
        </mxCell>
        <mxCell id="qdn6MXQOEBnzC9-wBVx1-53" value="Line 4" style="text;strokeColor=none;fillColor=#E6E6E6;align=left;verticalAlign=middle;spacingLeft=4;spacingRight=4;overflow=hidden;points=[[0,0.5],[1,0.5]];portConstraint=eastwest;rotatable=0;whiteSpace=wrap;html=1;" vertex="1" parent="qdn6MXQOEBnzC9-wBVx1-49">
          <mxGeometry y="120" width="119" height="30" as="geometry" />
        </mxCell>
        <mxCell id="qdn6MXQOEBnzC9-wBVx1-125" style="edgeStyle=orthogonalEdgeStyle;rounded=0;orthogonalLoop=1;jettySize=auto;html=1;exitX=1;exitY=0.5;exitDx=0;exitDy=0;" edge="1" parent="1" source="qdn6MXQOEBnzC9-wBVx1-72">
          <mxGeometry relative="1" as="geometry">
            <mxPoint x="1140" y="419.52941176470586" as="targetPoint" />
          </mxGeometry>
        </mxCell>
        <mxCell id="qdn6MXQOEBnzC9-wBVx1-72" value="" style="rounded=0;whiteSpace=wrap;html=1;fillColor=#FFD966;" vertex="1" parent="1">
          <mxGeometry x="1069" y="360" width="40" height="120" as="geometry" />
        </mxCell>
        <mxCell id="qdn6MXQOEBnzC9-wBVx1-75" value="" style="endArrow=none;html=1;rounded=0;exitX=1;exitY=0.25;exitDx=0;exitDy=0;" edge="1" parent="1" source="qdn6MXQOEBnzC9-wBVx1-72">
          <mxGeometry width="50" height="50" relative="1" as="geometry">
            <mxPoint x="1121.72" y="398.6400000000001" as="sourcePoint" />
            <mxPoint x="1068" y="360" as="targetPoint" />
          </mxGeometry>
        </mxCell>
        <mxCell id="qdn6MXQOEBnzC9-wBVx1-76" value="" style="endArrow=none;html=1;rounded=0;entryX=0.996;entryY=0.654;entryDx=0;entryDy=0;entryPerimeter=0;exitX=0;exitY=1;exitDx=0;exitDy=0;" edge="1" parent="1" source="qdn6MXQOEBnzC9-wBVx1-72" target="qdn6MXQOEBnzC9-wBVx1-72">
          <mxGeometry width="50" height="50" relative="1" as="geometry">
            <mxPoint x="1056" y="480" as="sourcePoint" />
            <mxPoint x="1096" y="440" as="targetPoint" />
          </mxGeometry>
        </mxCell>
        <mxCell id="qdn6MXQOEBnzC9-wBVx1-80" value="" style="endArrow=none;dashed=1;html=1;dashPattern=1 3;strokeWidth=2;rounded=0;" edge="1" parent="1">
          <mxGeometry width="50" height="50" relative="1" as="geometry">
            <mxPoint x="1145" y="200" as="sourcePoint" />
            <mxPoint x="1145" y="640" as="targetPoint" />
          </mxGeometry>
        </mxCell>
        <mxCell id="qdn6MXQOEBnzC9-wBVx1-126" style="edgeStyle=orthogonalEdgeStyle;rounded=0;orthogonalLoop=1;jettySize=auto;html=1;exitX=1;exitY=0.5;exitDx=0;exitDy=0;entryX=0.5;entryY=0;entryDx=0;entryDy=0;" edge="1" parent="1" source="qdn6MXQOEBnzC9-wBVx1-81" target="qdn6MXQOEBnzC9-wBVx1-99">
          <mxGeometry relative="1" as="geometry">
            <Array as="points">
              <mxPoint x="1150" y="420" />
              <mxPoint x="1210" y="420" />
              <mxPoint x="1210" y="230" />
              <mxPoint x="590" y="230" />
            </Array>
          </mxGeometry>
        </mxCell>
        <mxCell id="qdn6MXQOEBnzC9-wBVx1-81" value="" style="rounded=0;whiteSpace=wrap;html=1;fillColor=#A680B8;" vertex="1" parent="1">
          <mxGeometry x="1140" y="375" width="10" height="80" as="geometry" />
        </mxCell>
        <mxCell id="qdn6MXQOEBnzC9-wBVx1-82" value="&lt;b&gt;&lt;font style=&quot;font-size: 24px;&quot;&gt;Fetch&lt;/font&gt;&lt;/b&gt;" style="text;html=1;align=center;verticalAlign=middle;whiteSpace=wrap;rounded=0;" vertex="1" parent="1">
          <mxGeometry x="330" y="190" width="60" height="30" as="geometry" />
        </mxCell>
        <mxCell id="qdn6MXQOEBnzC9-wBVx1-84" value="&lt;b&gt;&lt;font style=&quot;font-size: 24px;&quot;&gt;ALU&lt;/font&gt;&lt;/b&gt;" style="text;html=1;align=center;verticalAlign=middle;whiteSpace=wrap;rounded=0;" vertex="1" parent="1">
          <mxGeometry x="730" y="190" width="60" height="30" as="geometry" />
        </mxCell>
        <mxCell id="qdn6MXQOEBnzC9-wBVx1-85" value="&lt;span style=&quot;font-size: 24px;&quot;&gt;&lt;b&gt;Memory&lt;/b&gt;&lt;/span&gt;" style="text;html=1;align=center;verticalAlign=middle;whiteSpace=wrap;rounded=0;" vertex="1" parent="1">
          <mxGeometry x="933.5" y="190" width="60" height="30" as="geometry" />
        </mxCell>
        <mxCell id="qdn6MXQOEBnzC9-wBVx1-86" value="&lt;b&gt;&lt;font style=&quot;font-size: 24px;&quot;&gt;Write&lt;/font&gt;&lt;/b&gt;" style="text;html=1;align=center;verticalAlign=middle;whiteSpace=wrap;rounded=0;" vertex="1" parent="1">
          <mxGeometry x="1185" y="190" width="60" height="30" as="geometry" />
        </mxCell>
        <mxCell id="qdn6MXQOEBnzC9-wBVx1-87" value="&lt;b&gt;&lt;font style=&quot;font-size: 24px;&quot;&gt;Decode&lt;/font&gt;&lt;/b&gt;" style="text;html=1;align=center;verticalAlign=middle;whiteSpace=wrap;rounded=0;" vertex="1" parent="1">
          <mxGeometry x="548" y="190" width="60" height="30" as="geometry" />
        </mxCell>
        <mxCell id="qdn6MXQOEBnzC9-wBVx1-90" style="edgeStyle=orthogonalEdgeStyle;rounded=0;orthogonalLoop=1;jettySize=auto;html=1;exitX=0;exitY=0.5;exitDx=0;exitDy=0;entryX=0;entryY=0.5;entryDx=0;entryDy=0;" edge="1" parent="1" source="qdn6MXQOEBnzC9-wBVx1-2" target="qdn6MXQOEBnzC9-wBVx1-7">
          <mxGeometry relative="1" as="geometry" />
        </mxCell>
        <mxCell id="qdn6MXQOEBnzC9-wBVx1-91" style="edgeStyle=orthogonalEdgeStyle;rounded=0;orthogonalLoop=1;jettySize=auto;html=1;exitX=1;exitY=0.5;exitDx=0;exitDy=0;entryX=-0.007;entryY=0.683;entryDx=0;entryDy=0;entryPerimeter=0;" edge="1" parent="1" source="qdn6MXQOEBnzC9-wBVx1-7" target="qdn6MXQOEBnzC9-wBVx1-12">
          <mxGeometry relative="1" as="geometry" />
        </mxCell>
        <mxCell id="qdn6MXQOEBnzC9-wBVx1-92" style="edgeStyle=orthogonalEdgeStyle;rounded=0;orthogonalLoop=1;jettySize=auto;html=1;entryX=0.007;entryY=-0.048;entryDx=0;entryDy=0;entryPerimeter=0;" edge="1" parent="1" target="qdn6MXQOEBnzC9-wBVx1-22">
          <mxGeometry relative="1" as="geometry">
            <mxPoint x="281" y="420" as="sourcePoint" />
          </mxGeometry>
        </mxCell>
        <mxCell id="qdn6MXQOEBnzC9-wBVx1-95" style="edgeStyle=orthogonalEdgeStyle;rounded=0;orthogonalLoop=1;jettySize=auto;html=1;exitX=1;exitY=0.5;exitDx=0;exitDy=0;entryX=0.969;entryY=0.184;entryDx=0;entryDy=0;entryPerimeter=0;" edge="1" parent="1" source="qdn6MXQOEBnzC9-wBVx1-34" target="qdn6MXQOEBnzC9-wBVx1-2">
          <mxGeometry relative="1" as="geometry" />
        </mxCell>
        <mxCell id="qdn6MXQOEBnzC9-wBVx1-127" value="Branch taken" style="edgeLabel;html=1;align=center;verticalAlign=middle;resizable=0;points=[];" vertex="1" connectable="0" parent="qdn6MXQOEBnzC9-wBVx1-95">
          <mxGeometry x="0.8763" y="-1" relative="1" as="geometry">
            <mxPoint x="23" y="-7" as="offset" />
          </mxGeometry>
        </mxCell>
        <mxCell id="qdn6MXQOEBnzC9-wBVx1-97" style="edgeStyle=orthogonalEdgeStyle;rounded=0;orthogonalLoop=1;jettySize=auto;html=1;exitX=1;exitY=0.5;exitDx=0;exitDy=0;entryX=-0.011;entryY=0.911;entryDx=0;entryDy=0;entryPerimeter=0;" edge="1" parent="1" source="qdn6MXQOEBnzC9-wBVx1-25" target="qdn6MXQOEBnzC9-wBVx1-100">
          <mxGeometry relative="1" as="geometry">
            <mxPoint x="519" y="375" as="targetPoint" />
          </mxGeometry>
        </mxCell>
        <mxCell id="qdn6MXQOEBnzC9-wBVx1-106" style="edgeStyle=orthogonalEdgeStyle;rounded=0;orthogonalLoop=1;jettySize=auto;html=1;exitX=1;exitY=0.75;exitDx=0;exitDy=0;entryX=0;entryY=0.75;entryDx=0;entryDy=0;" edge="1" parent="1" source="qdn6MXQOEBnzC9-wBVx1-99" target="qdn6MXQOEBnzC9-wBVx1-31">
          <mxGeometry relative="1" as="geometry" />
        </mxCell>
        <mxCell id="qdn6MXQOEBnzC9-wBVx1-107" style="edgeStyle=orthogonalEdgeStyle;rounded=0;orthogonalLoop=1;jettySize=auto;html=1;exitX=1;exitY=0.25;exitDx=0;exitDy=0;entryX=0;entryY=0.5;entryDx=0;entryDy=0;" edge="1" parent="1" source="qdn6MXQOEBnzC9-wBVx1-99" target="qdn6MXQOEBnzC9-wBVx1-32">
          <mxGeometry relative="1" as="geometry" />
        </mxCell>
        <mxCell id="qdn6MXQOEBnzC9-wBVx1-114" style="edgeStyle=orthogonalEdgeStyle;rounded=0;orthogonalLoop=1;jettySize=auto;html=1;exitX=1;exitY=0.75;exitDx=0;exitDy=0;entryX=0;entryY=0.5;entryDx=0;entryDy=0;" edge="1" parent="1" source="qdn6MXQOEBnzC9-wBVx1-99" target="qdn6MXQOEBnzC9-wBVx1-33">
          <mxGeometry relative="1" as="geometry">
            <Array as="points">
              <mxPoint x="670" y="433" />
              <mxPoint x="670" y="561" />
            </Array>
          </mxGeometry>
        </mxCell>
        <mxCell id="qdn6MXQOEBnzC9-wBVx1-99" value="Register File" style="swimlane;fontStyle=1;childLayout=stackLayout;horizontal=1;startSize=30;horizontalStack=0;resizeParent=1;resizeParentMax=0;resizeLast=0;collapsible=1;marginBottom=0;whiteSpace=wrap;html=1;fillColor=#A9C4EB;" vertex="1" parent="1">
          <mxGeometry x="530" y="320" width="120" height="150" as="geometry" />
        </mxCell>
        <mxCell id="qdn6MXQOEBnzC9-wBVx1-100" value="Register 0 (0)" style="text;strokeColor=none;fillColor=#E6E6E6;align=left;verticalAlign=middle;spacingLeft=4;spacingRight=4;overflow=hidden;points=[[0,0.5],[1,0.5]];portConstraint=eastwest;rotatable=0;whiteSpace=wrap;html=1;" vertex="1" parent="qdn6MXQOEBnzC9-wBVx1-99">
          <mxGeometry y="30" width="120" height="30" as="geometry" />
        </mxCell>
        <mxCell id="qdn6MXQOEBnzC9-wBVx1-101" value="Register 1" style="text;strokeColor=none;fillColor=#E6E6E6;align=left;verticalAlign=middle;spacingLeft=4;spacingRight=4;overflow=hidden;points=[[0,0.5],[1,0.5]];portConstraint=eastwest;rotatable=0;whiteSpace=wrap;html=1;" vertex="1" parent="qdn6MXQOEBnzC9-wBVx1-99">
          <mxGeometry y="60" width="120" height="30" as="geometry" />
        </mxCell>
        <mxCell id="qdn6MXQOEBnzC9-wBVx1-102" value="..." style="text;strokeColor=none;fillColor=#E6E6E6;align=left;verticalAlign=middle;spacingLeft=4;spacingRight=4;overflow=hidden;points=[[0,0.5],[1,0.5]];portConstraint=eastwest;rotatable=0;whiteSpace=wrap;html=1;" vertex="1" parent="qdn6MXQOEBnzC9-wBVx1-99">
          <mxGeometry y="90" width="120" height="30" as="geometry" />
        </mxCell>
        <mxCell id="qdn6MXQOEBnzC9-wBVx1-103" value="Register 31" style="text;strokeColor=none;fillColor=#E6E6E6;align=left;verticalAlign=middle;spacingLeft=4;spacingRight=4;overflow=hidden;points=[[0,0.5],[1,0.5]];portConstraint=eastwest;rotatable=0;whiteSpace=wrap;html=1;" vertex="1" parent="qdn6MXQOEBnzC9-wBVx1-99">
          <mxGeometry y="120" width="120" height="30" as="geometry" />
        </mxCell>
        <mxCell id="qdn6MXQOEBnzC9-wBVx1-133" style="edgeStyle=orthogonalEdgeStyle;rounded=0;orthogonalLoop=1;jettySize=auto;html=1;exitX=0.099;exitY=0.999;exitDx=0;exitDy=0;entryX=0.75;entryY=1;entryDx=0;entryDy=0;exitPerimeter=0;" edge="1" parent="1" source="qdn6MXQOEBnzC9-wBVx1-34" target="qdn6MXQOEBnzC9-wBVx1-34">
          <mxGeometry relative="1" as="geometry">
            <Array as="points">
              <mxPoint x="745" y="478" />
              <mxPoint x="745" y="520" />
              <mxPoint x="795" y="520" />
            </Array>
          </mxGeometry>
        </mxCell>
        <mxCell id="qdn6MXQOEBnzC9-wBVx1-134" value="&lt;div&gt;5x MULL&lt;/div&gt;" style="edgeLabel;html=1;align=center;verticalAlign=middle;resizable=0;points=[];" vertex="1" connectable="0" parent="qdn6MXQOEBnzC9-wBVx1-133">
          <mxGeometry x="-0.0294" y="-1" relative="1" as="geometry">
            <mxPoint x="10" y="6" as="offset" />
          </mxGeometry>
        </mxCell>
      </root>
    </mxGraphModel>
  </diagram>
</mxfile>